<svg width="81" height="17" viewBox="0 0 81 17" fill="none" xmlns="http://www.w3.org/2000/svg">
<path d="M6.28 9.048L6.038 10.038H8.678L8.436 9.048C8.26 8.35867 8.084 7.61067 7.908 6.804C7.732 5.99733 7.556 5.23467 7.38 4.516H7.292C7.14533 5.23467 6.984 5.99733 6.808 6.804C6.632 7.61067 6.456 8.35867 6.28 9.048ZM0.78 16L5.136 1.7H9.712L14.068 16H10.064L9.36 12.964H5.356L4.652 16H0.78ZM14.0353 16.264C13.654 16.264 13.324 16.2493 13.0453 16.22C12.7813 16.1907 12.5393 16.132 12.3193 16.044L12.9353 12.7C13.0233 12.7147 13.1113 12.7367 13.1993 12.766C13.2873 12.7807 13.3753 12.788 13.4633 12.788C13.654 12.788 13.83 12.7367 13.9913 12.634C14.1527 12.5313 14.314 12.304 14.4753 11.952C14.6367 11.6 14.8127 11.05 15.0033 10.302C15.2527 9.31933 15.48 8.31467 15.6853 7.288C15.9053 6.26133 16.1033 5.264 16.2793 4.296H24.2873V16H20.5033V7.376H19.0953C18.9927 7.948 18.8827 8.51267 18.7653 9.07C18.6627 9.62733 18.5527 10.1627 18.4353 10.676C18.1273 12.084 17.7827 13.1987 17.4013 14.02C17.02 14.8267 16.558 15.406 16.0153 15.758C15.4727 16.0953 14.8127 16.264 14.0353 16.264ZM25.7957 16V4.296H33.9797V7.2H29.5797V8.74H33.3637V11.468H29.5797V13.096H34.1997V16H25.7957ZM35.3176 16V4.296H38.7936V6.672C38.7936 7.17067 38.7643 7.728 38.7056 8.344C38.6469 8.94533 38.5809 9.532 38.5076 10.104C38.4343 10.676 38.3683 11.1747 38.3096 11.6H38.3976L39.6516 8.718L41.8736 4.296H45.6576V16H42.1816V13.646C42.1816 13.1327 42.2109 12.5827 42.2696 11.996C42.3283 11.4093 42.3943 10.83 42.4676 10.258C42.5409 9.67133 42.6069 9.15067 42.6656 8.696H42.5776L41.3236 11.556L39.0136 16H35.3176ZM40.6856 3.328C39.2189 3.328 38.1703 3.04933 37.5396 2.492C36.9236 1.92 36.5936 1.172 36.5496 0.248H39.7176C39.7616 1.06933 40.0843 1.48 40.6856 1.48C41.2869 1.48 41.6096 1.06933 41.6536 0.248H44.8216C44.7776 1.172 44.4476 1.92 43.8316 2.492C43.2156 3.04933 42.1669 3.328 40.6856 3.328ZM47.1813 16V4.296H52.2193C53.0993 4.296 53.9206 4.42067 54.6833 4.67C55.4606 4.90467 56.0839 5.31533 56.5533 5.902C57.0226 6.48867 57.2573 7.30267 57.2573 8.344C57.2573 9.34133 57.0153 10.1553 56.5313 10.786C56.0473 11.402 55.4166 11.8567 54.6393 12.15C53.8766 12.4287 53.0699 12.568 52.2193 12.568H50.9653V16H47.1813ZM50.9653 10.016H52.1093C52.6226 10.016 53.0113 9.87667 53.2753 9.598C53.5539 9.31933 53.6933 8.97467 53.6933 8.564C53.6933 7.684 53.1653 7.244 52.1093 7.244H50.9653V10.016ZM63.2732 16.264C62.0999 16.264 61.0659 16.022 60.1712 15.538C59.2766 15.0393 58.5799 14.3353 58.0812 13.426C57.5826 12.502 57.3332 11.3947 57.3332 10.104C57.3332 8.79867 57.5826 7.69867 58.0812 6.804C58.5799 5.89467 59.2766 5.20533 60.1712 4.736C61.0659 4.26667 62.0999 4.032 63.2732 4.032C64.4319 4.032 65.4512 4.26667 66.3312 4.736C67.2259 5.20533 67.9226 5.89467 68.4212 6.804C68.9199 7.69867 69.1692 8.79867 69.1692 10.104C69.1692 11.3947 68.9199 12.502 68.4212 13.426C67.9226 14.3353 67.2259 15.0393 66.3312 15.538C65.4512 16.022 64.4319 16.264 63.2732 16.264ZM63.2732 13.184C63.9186 13.184 64.4172 12.9053 64.7692 12.348C65.1212 11.7907 65.2972 11.0427 65.2972 10.104C65.2972 9.136 65.1212 8.39533 64.7692 7.882C64.4172 7.36867 63.9186 7.112 63.2732 7.112C62.6132 7.112 62.0999 7.36867 61.7332 7.882C61.3812 8.39533 61.2052 9.136 61.2052 10.104C61.2052 11.0427 61.3812 11.7907 61.7332 12.348C62.0999 12.9053 62.6132 13.184 63.2732 13.184ZM70.0707 16V4.296H73.8547V8.432H77.0227V4.296H80.8067V16H77.0227V11.688H73.8547V16H70.0707Z" fill="#E82C2C"/>
</svg>
