<svg width="24" height="24" viewBox="0 0 24 24" fill="none" xmlns="http://www.w3.org/2000/svg">
<g clip-path="url(#clip0_4522_189)">
<path d="M0.512578 11.8957C0.512016 13.9189 1.04302 15.8943 2.0527 17.6355L0.416016 23.5847L6.53151 21.9883C8.22298 22.905 10.1181 23.3854 12.044 23.3855H12.0491C18.4067 23.3855 23.582 18.2352 23.5847 11.9048C23.5859 8.83723 22.3871 5.95272 20.2089 3.78257C18.0311 1.6126 15.1347 0.416927 12.0486 0.415527C5.6902 0.415527 0.515297 5.56558 0.512672 11.8957" fill="url(#paint0_linear_4522_189)"/>
<path d="M0.100313 11.892C0.0996563 13.9879 0.649687 16.034 1.69537 17.8376L0 24L6.33478 22.3464C8.08022 23.2938 10.0454 23.7934 12.0451 23.7941H12.0502C18.636 23.7941 23.9972 18.4585 24 11.9015C24.0011 8.72373 22.7591 5.73552 20.5031 3.48762C18.2468 1.24001 15.2468 0.00130665 12.0502 0C5.46337 0 0.102938 5.33485 0.100313 11.892ZM3.87281 17.527L3.63628 17.1532C2.64197 15.5792 2.11716 13.7604 2.11791 11.8927C2.12006 6.4426 6.57544 2.0085 12.054 2.0085C14.7071 2.00962 17.2005 3.03926 19.0759 4.90739C20.9512 6.7757 21.9831 9.25926 21.9824 11.9007C21.98 17.3509 17.5245 21.7855 12.0502 21.7855H12.0463C10.2638 21.7846 8.51569 21.308 6.99113 20.4075L6.62831 20.1933L2.86912 21.1745L3.87281 17.5269V17.527Z" fill="white"/>
<path d="M9.06383 6.92042C8.84014 6.42549 8.60473 6.4155 8.39202 6.40682C8.21783 6.39935 8.0187 6.39991 7.81977 6.39991C7.62064 6.39991 7.29711 6.47448 7.02364 6.77175C6.74989 7.06929 5.97852 7.78832 5.97852 9.25073C5.97852 10.7132 7.04848 12.1266 7.19764 12.3251C7.34698 12.5232 9.26323 15.6203 12.2981 16.8118C14.8204 17.802 15.3336 17.605 15.881 17.5554C16.4285 17.5059 17.6477 16.8365 17.8964 16.1424C18.1453 15.4484 18.1453 14.8535 18.0707 14.7292C17.996 14.6054 17.7969 14.531 17.4983 14.3824C17.1996 14.2337 15.7317 13.5146 15.458 13.4154C15.1843 13.3163 14.9853 13.2668 14.7861 13.5644C14.587 13.8616 14.0152 14.531 13.841 14.7292C13.6669 14.9279 13.4926 14.9526 13.1941 14.804C12.8953 14.6548 11.9337 14.3413 10.7929 13.3288C9.90523 12.5409 9.30598 11.5679 9.1318 11.2702C8.95761 10.9731 9.11314 10.812 9.26286 10.6639C9.39702 10.5307 9.56155 10.3168 9.71098 10.1433C9.85986 9.96967 9.90955 9.84581 10.0091 9.64758C10.1088 9.44915 10.0589 9.27556 9.98436 9.12688C9.90955 8.9782 9.32933 7.50813 9.06383 6.92042Z" fill="white"/>
</g>
<defs>
<linearGradient id="paint0_linear_4522_189" x1="1158.85" y1="2317.33" x2="1158.85" y2="0.415527" gradientUnits="userSpaceOnUse">
<stop stop-color="#1FAF38"/>
<stop offset="1" stop-color="#60D669"/>
</linearGradient>
<clipPath id="clip0_4522_189">
<rect width="24" height="24" fill="white"/>
</clipPath>
</defs>
</svg>
